<?xml version="1.0" encoding="UTF-8"?>
<svg version="1.1" xmlns="http://www.w3.org/2000/svg" width="192" height="192">
<path d="M0 0 C12.89769511 8.04945179 24.2566977 19.00782721 35.375 29.3125 C36.05554192 29.94189232 36.73608383 30.57128464 37.43724823 31.21974945 C54.08497214 46.75299484 67.13797197 60.65533325 68.04324341 84.25953674 C68.26016892 97.97031278 66.33957823 111.52725639 64 125 C55.09 125 46.18 125 37 125 C37.495 129.455 37.495 129.455 38 134 C38.02172852 136.67407227 38.02172852 136.67407227 37.87890625 138.81640625 C37.80639648 139.99106445 37.80639648 139.99106445 37.73242188 141.18945312 C37.67634766 141.97255859 37.62027344 142.75566406 37.5625 143.5625 C37.51029297 144.38041016 37.45808594 145.19832031 37.40429688 146.04101562 C37.27649179 148.02780375 37.13925695 150.0139817 37 152 C27.08955271 152.87433408 17.27408052 153.15752375 7.33203125 153.13037109 C5.00253801 153.12500585 2.67323749 153.1303567 0.34375 153.13671875 C-1.18750041 153.13605776 -2.71875071 153.13477617 -4.25 153.1328125 C-5.25691895 153.13584885 -5.25691895 153.13584885 -6.28417969 153.13894653 C-7.69069352 153.13237345 -9.09724698 153.09994991 -10.50274658 153.04614258 C-13.11302647 152.96141968 -13.11302647 152.96141968 -16.16278076 153.21948242 C-23.97116022 153.3846872 -28.3966458 151.75236598 -33.97363281 146.54980469 C-36.44389636 144.14599219 -38.82517563 141.66656183 -41.203125 139.171875 C-42.49846842 137.85986561 -43.79651355 136.55051867 -45.09710693 135.24371338 C-47.80292922 132.51205704 -50.4865337 129.76100034 -53.15380859 126.99169922 C-56.56936708 123.44560984 -60.01892479 119.93525557 -63.48317337 116.43677902 C-66.79672922 113.08848077 -70.09499866 109.72530971 -73.390625 106.359375 C-74.0173838 105.72091393 -74.64414261 105.08245285 -75.2898941 104.42464447 C-77.0613925 102.61363424 -78.82192092 100.7926665 -80.57910156 98.96777344 C-81.10160995 98.43562729 -81.62411835 97.90348114 -82.16246033 97.35520935 C-86.91797497 92.37221075 -88.68298577 87.84727313 -88.53076172 81.04248047 C-87.34680712 74.25570853 -83.69586228 68.1328488 -80.5625 62.0625 C-79.06516422 59.11717952 -77.57571023 56.16790114 -76.0859375 53.21875 C-75.72092636 52.50187515 -75.35591522 51.78500031 -74.97984314 51.04640198 C-72.97863897 47.0828378 -71.17588641 43.1264686 -69.6015625 38.96875 C-65.8870957 29.23338734 -62.1827513 24.11182326 -52.56298828 19.73120117 C-50.77257722 18.95807685 -48.97884565 18.19261604 -47.18261719 17.43310547 C-43.38896545 15.72485634 -39.74063134 13.80353096 -36.0703125 11.84765625 C-33.94245897 10.72768242 -31.81334679 9.61013656 -29.68386841 8.49325562 C-28.28542195 7.75608021 -26.89003937 7.01305874 -25.49801636 6.26382446 C-17.41871822 1.94089712 -9.42536492 -2.29954371 0 0 Z " fill="#2BB6F4" transform="translate(108,20)"/>
<path d="M0 0 C28.71 0 57.42 0 87 0 C87 0.66 87 1.32 87 2 C87.99906372 2.08967041 87.99906372 2.08967041 89.01831055 2.18115234 C102.40740549 5.85813789 116.79161447 21.19993266 123.57543945 32.74346924 C131.85097339 51.66125473 127.02918695 79.17370156 125 99 C120.65403029 99.15150041 116.30874563 99.24310397 111.9609375 99.32421875 C110.7349585 99.36768433 109.50897949 99.4111499 108.24584961 99.45593262 C101.74169151 99.54696889 97.09498473 99.50619232 91.98779297 95.2208252 C89.79344273 92.9531596 87.88796826 90.52524274 86 88 C84.33693692 86.32973752 82.67093104 84.66239136 81 83 C79.6875 80.6875 79.6875 80.6875 79 79 C78.34 79 77.68 79 77 79 C77 78.34 77 77.68 77 77 C76.34 77 75.68 77 75 77 C72.875 75.125 72.875 75.125 71 73 C71 72.34 71 71.68 71 71 C70.34 71 69.68 71 69 71 C69 70.34 69 69.68 69 69 C68.34 69 67.68 69 67 69 C64.875 67.125 64.875 67.125 63 65 C63 64.34 63 63.68 63 63 C62.34 63 61.68 63 61 63 C61 62.34 61 61.68 61 61 C60.34 61 59.68 61 59 61 C57.703125 59.64453125 57.703125 59.64453125 56.25 57.8125 C54.19609956 55.31341917 52.16157864 53.19512386 49.625 51.1875 C48.75875 50.465625 47.8925 49.74375 47 49 C47 48.34 47 47.68 47 47 C46.34 47 45.68 47 45 47 C45 46.34 45 45.68 45 45 C44.34 45 43.68 45 43 45 C41.703125 43.64453125 41.703125 43.64453125 40.25 41.8125 C38.19609956 39.31341917 36.16157864 37.19512386 33.625 35.1875 C32.75875 34.465625 31.8925 33.74375 31 33 C31 32.34 31 31.68 31 31 C30.34 31 29.68 31 29 31 C29 30.34 29 29.68 29 29 C28.34 29 27.68 29 27 29 C24.875 27.125 24.875 27.125 23 25 C23 24.34 23 23.68 23 23 C22.34 23 21.68 23 21 23 C21 22.34 21 21.68 21 21 C20.34 21 19.68 21 19 21 C17.703125 19.64453125 17.703125 19.64453125 16.25 17.8125 C14.267432 15.41229661 12.48423825 13.57202749 10.0625 11.5625 C6.27937692 8.39702967 3.05624504 4.87003809 0 1 C0 0.67 0 0.34 0 0 Z " fill="#04599B" transform="translate(47,46)"/>
<path d="M0 0 C29.7 0 59.4 0 90 0 C91.125 10.125 91.125 10.125 90.87890625 13.81640625 C90.83056641 14.59951172 90.78222656 15.38261719 90.73242188 16.18945312 C90.67634766 16.97255859 90.62027344 17.75566406 90.5625 18.5625 C90.51029297 19.38041016 90.45808594 20.19832031 90.40429688 21.04101562 C90.27649179 23.02780375 90.13925695 25.0139817 90 27 C80.08955271 27.87433408 70.27408052 28.15752375 60.33203125 28.13037109 C58.00253801 28.12500585 55.67323749 28.1303567 53.34375 28.13671875 C50.31114387 28.14209507 47.28243798 28.10938996 44.25048828 28.04785156 C41.54560367 27.99388006 38.95627229 28.06271325 36.24560547 28.22558594 C29.61111776 28.37538204 25.63132619 27.27035752 20.70489502 22.93753052 C17.716727 20.07172305 14.91751619 17.05478791 12.125 14 C10.93924452 12.75750205 9.75045928 11.5178881 8.55859375 10.28125 C0 1.32930297 0 1.32930297 0 0 Z " fill="#40C3FE" transform="translate(55,145)"/>
<path d="M0 0 C4.46978674 2.5525979 8.03852022 5.76496421 11.6171875 9.421875 C12.11920685 9.92672424 12.6212262 10.43157349 13.13845825 10.95172119 C14.72211415 12.54646586 16.29862587 14.14806044 17.875 15.75 C18.95526219 16.84030662 20.0359872 17.9301549 21.1171875 19.01953125 C23.75015952 21.67441334 26.37677662 24.33548103 29 27 C27.515 27.495 27.515 27.495 26 28 C26 27.34 26 26.68 26 26 C-2.71 26 -31.42 26 -61 26 C-61 54.38 -61 82.76 -61 112 C-61.33 112 -61.66 112 -62 112 C-62.33 83.62 -62.66 55.24 -63 26 C-56.73 22.7 -50.46 19.4 -44 16 C-41.21691406 14.52273437 -38.43382812 13.04546875 -35.56640625 11.5234375 C-31.54101562 9.43359375 -31.54101562 9.43359375 -29.55395508 8.40966797 C-28.20909509 7.71094091 -26.86898725 7.00300147 -25.53344727 6.28662109 C-17.44188085 1.95543051 -9.44293921 -2.30383138 0 0 Z " fill="#43C4FD" transform="translate(108,20)"/>
<path d="M0 0 C0.33 0 0.66 0 1 0 C1.01030746 1.05156281 1.02061493 2.10312561 1.03123474 3.18655396 C1.12905138 13.10342282 1.23179316 23.0202301 1.33933926 32.93699837 C1.39446998 38.03512587 1.44787403 43.1332592 1.49731445 48.23144531 C1.54510354 53.15276838 1.59745122 58.0740239 1.65294075 62.99526596 C1.67329852 64.87148223 1.69202222 66.74771698 1.70907402 68.62396622 C1.73326413 71.25474968 1.76329805 73.88540709 1.79467773 76.51611328 C1.80331093 77.67597496 1.80331093 77.67597496 1.81211853 78.85926819 C1.86818443 83.00286728 2.1978252 86.93327251 3 91 C-2.8959491 86.09335765 -8.37331593 80.84323789 -13.8125 75.4375 C-15.09930664 74.18163086 -15.09930664 74.18163086 -16.41210938 72.90039062 C-17.6409082 71.67932617 -17.6409082 71.67932617 -18.89453125 70.43359375 C-19.63550049 69.70197021 -20.37646973 68.97034668 -21.13989258 68.21655273 C-24.73244137 63.93557748 -25.65658058 59.5224475 -25.53515625 54.05126953 C-24.33631186 47.2158876 -20.6475365 41.05628138 -17.5 34.9375 C-16.75894896 33.46195895 -16.01994005 31.98539056 -15.28295898 30.5078125 C-13.84465112 27.62736974 -12.39807298 24.7513488 -10.94482422 21.87841797 C-8.21467872 16.46114345 -5.65938271 10.96584839 -3.12109375 5.45678711 C-1.0969444 1.0969444 -1.0969444 1.0969444 0 0 Z " fill="#095B9B" transform="translate(45,47)"/>
<path d="M0 0 C0 0.66 0 1.32 0 2 C-5.75 5 -5.75 5 -8 5 C-8.33 6.32 -8.66 7.64 -9 9 C13.77 9 36.54 9 60 9 C60 9.33 60 9.66 60 10 C33.93 10 7.86 10 -19 10 C-19 38.38 -19 66.76 -19 96 C-19.33 96 -19.66 96 -20 96 C-20.33 67.62 -20.66 39.24 -21 10 C-2 0 -2 0 0 0 Z " fill="#50C1FB" transform="translate(66,36)"/>
<path d="M0 0 C2 2 2 2 2.13525391 4.43017578 C2.08288574 5.4251709 2.03051758 6.42016602 1.9765625 7.4453125 C1.89921875 9.05986328 1.89921875 9.05986328 1.8203125 10.70703125 C1.75585938 11.83496094 1.69140625 12.96289062 1.625 14.125 C1.53992188 15.82849609 1.53992188 15.82849609 1.453125 17.56640625 C1.31135306 20.3782163 1.15991439 23.18917281 1 26 C-8.91044729 26.87433408 -18.72591948 27.15752375 -28.66796875 27.13037109 C-30.99746199 27.12500585 -33.32676251 27.1303567 -35.65625 27.13671875 C-42.73547615 27.14219202 -49.81104638 27.04991838 -56.8828125 26.71484375 C-57.97480957 26.66448975 -59.06680664 26.61413574 -60.19189453 26.56225586 C-64.20509354 25.75870888 -65.95260167 23.81005081 -68.1796875 20.49609375 C-68.45039062 20.00238281 -68.72109375 19.50867188 -69 19 C-67.68 19 -66.36 19 -65 19 C-64.54690964 19.81139938 -64.09381927 20.62279877 -63.6269989 21.45878601 C-62.23889774 24.27616577 -62.23889774 24.27616577 -59.28547668 24.63923645 C-57.64333443 24.6492292 -57.64333443 24.6492292 -55.96801758 24.65942383 C-54.72695755 24.67906693 -53.48589752 24.69871002 -52.20722961 24.71894836 C-50.85299538 24.71550491 -49.49876243 24.71151979 -48.14453125 24.70703125 C-46.75874151 24.72014572 -45.3729709 24.73544919 -43.98722839 24.75285339 C-40.34243717 24.79274737 -36.69814543 24.80289649 -33.05316162 24.80688477 C-29.33281255 24.81620819 -25.61275798 24.85361653 -21.89257812 24.88867188 C-14.594998 24.95329253 -7.29787802 24.98389965 0 25 C0 16.75 0 8.5 0 0 Z " fill="#90CFEB" transform="translate(144,146)"/>
<path d="M0 0 C0.33 0 0.66 0 1 0 C1 5.28 1 10.56 1 16 C0.67 15.01 0.34 14.02 0 13 C-1.98 13 -3.96 13 -6 13 C-4.58707905 8.1725201 -2.57025846 4.2837641 0 0 Z " fill="#286FA4" transform="translate(45,47)"/>
<path d="M0 0 C0 0.66 0 1.32 0 2 C-1.97321053 3.3726682 -3.97543152 4.70427617 -6 6 C-6.66 6.66 -7.32 7.32 -8 8 C-9.8046875 8.66796875 -9.8046875 8.66796875 -11.875 9.1875 C-12.89207031 9.45626953 -12.89207031 9.45626953 -13.9296875 9.73046875 C-16.23731982 10.03089635 -17.77743795 9.61409082 -20 9 C-17.04492094 7.49352402 -14.08542659 5.99593635 -11.125 4.5 C-10.28324219 4.07074219 -9.44148438 3.64148438 -8.57421875 3.19921875 C-7.76855469 2.79316406 -6.96289062 2.38710938 -6.1328125 1.96875 C-5.38918457 1.59169922 -4.64555664 1.21464844 -3.87939453 0.82617188 C-2 0 -2 0 0 0 Z " fill="#70CDF3" transform="translate(96,21)"/>
<path d="M0 0 C0 0.66 0 1.32 0 2 C-5.75 5 -5.75 5 -8 5 C-8.66 6.32 -9.32 7.64 -10 9 C-12.64 9 -15.28 9 -18 9 C-14.82505993 6.44624385 -11.51896339 4.62552847 -7.875 2.8125 C-6.82054687 2.28269531 -5.76609375 1.75289062 -4.6796875 1.20703125 C-2 0 -2 0 0 0 Z " fill="#71CDF3" transform="translate(66,36)"/>
<path d="M0 0 C4.52615993 3.67832017 8.39424999 7.41086363 12 12 C11.01 12.495 11.01 12.495 10 13 C9.67 12.34 9.34 11.68 9 11 C8.01 11 7.02 11 6 11 C5.7525 10.195625 5.505 9.39125 5.25 8.5625 C4.8375 7.716875 4.425 6.87125 4 6 C2.02919843 5.25723969 2.02919843 5.25723969 0 5 C-0.66 4.34 -1.32 3.68 -2 3 C-1.34 2.01 -0.68 1.02 0 0 Z " fill="#2E6EA3" transform="translate(139,50)"/>
<path d="M0 0 C0.33 0.66 0.66 1.32 1 2 C1.66 2.33 2.32 2.66 3 3 C2.67 4.32 2.34 5.64 2 7 C1.01 7 0.02 7 -1 7 C-1.33 8.32 -1.66 9.64 -2 11 C-2.66 11 -3.32 11 -4 11 C-3.52269162 9.5410574 -3.04308958 8.08286504 -2.5625 6.625 C-2.29566406 5.81289062 -2.02882813 5.00078125 -1.75390625 4.1640625 C-1 2 -1 2 0 0 Z " fill="#3E7BAB" transform="translate(26,85)"/>
<path d="M0 0 C1.89510699 -0.08160748 3.79124504 -0.13946459 5.6875 -0.1875 C6.74324219 -0.22230469 7.79898438 -0.25710937 8.88671875 -0.29296875 C12.35422768 0.03333385 14.18432448 1.00969875 17 3 C16.34 3.66 15.68 4.32 15 5 C15 4.34 15 3.68 15 3 C13.02 3 11.04 3 9 3 C9 2.34 9 1.68 9 1 C6.03 1 3.06 1 0 1 C0 0.67 0 0.34 0 0 Z " fill="#80D3F1" transform="translate(96,20)"/>
<path d="M0 0 C2.97 0.495 2.97 0.495 6 1 C6.66 3.31 7.32 5.62 8 8 C6.85073734 7.04578192 5.70569459 6.08647955 4.5625 5.125 C3.92441406 4.59132812 3.28632812 4.05765625 2.62890625 3.5078125 C1 2 1 2 0 0 Z " fill="#387AAA" transform="translate(40,130)"/>
<path d="M0 0 C0 0.66 0 1.32 0 2 C-0.66 2 -1.32 2 -2 2 C-2.66 3.32 -3.32 4.64 -4 6 C-4 5.34 -4 4.68 -4 4 C-5.98 4.99 -5.98 4.99 -8 6 C-8.66 5.34 -9.32 4.68 -10 4 C-8.71086513 3.32845067 -7.41859796 2.66291141 -6.125 2 C-5.40570313 1.62875 -4.68640625 1.2575 -3.9453125 0.875 C-2 0 -2 0 0 0 Z " fill="#6FCEF4" transform="translate(76,31)"/>
<path d="M0 0 C1.32 0 2.64 0 4 0 C4 0.99 4 1.98 4 3 C5.32 3.66 6.64 4.32 8 5 C7.67 5.99 7.34 6.98 7 8 C5.83035398 6.8572081 4.66435444 5.71068285 3.5 4.5625 C2.8503125 3.92441406 2.200625 3.28632813 1.53125 2.62890625 C0 1 0 1 0 0 Z " fill="#71CBF1" transform="translate(67,157)"/>
<path d="M0 0 C2.31 1.98 4.62 3.96 7 6 C6.01 6.33 5.02 6.66 4 7 C4 6.34 4 5.68 4 5 C1.69 5 -0.62 5 -3 5 C-1.68 4.67 -0.36 4.34 1 4 C0.67 2.68 0.34 1.36 0 0 Z " fill="#6AC5F2" transform="translate(130,41)"/>
<path d="M0 0 C2 1.375 2 1.375 4 3 C4 3.66 4 4.32 4 5 C4.99 5.33 5.98 5.66 7 6 C5.68 6.33 4.36 6.66 3 7 C3 6.34 3 5.68 3 5 C2.34 5 1.68 5 1 5 C0.67 3.35 0.34 1.7 0 0 Z " fill="#30A4E3" transform="translate(47,47)"/>
<path d="M0 0 C1.32 0 2.64 0 4 0 C5.8125 2.375 5.8125 2.375 7 5 C6.67 5.66 6.34 6.32 6 7 C4.02 4.69 2.04 2.38 0 0 Z " fill="#6FCCF4" transform="translate(75,165)"/>
<path d="M0 0 C1.98 0 3.96 0 6 0 C5.67 1.65 5.34 3.3 5 5 C3.35 3.35 1.7 1.7 0 0 Z " fill="#63C9F6" transform="translate(55,145)"/>
<path d="M0 0 C2.91517292 1.07401108 4.77810176 1.77810176 7 4 C6.67 4.99 6.34 5.98 6 7 C4.02 4.69 2.04 2.38 0 0 Z " fill="#75CCF3" transform="translate(60,150)"/>
<path d="M0 0 C3.36720387 1.39332574 4.9859524 2.9789286 7 6 C6.01 6 5.02 6 4 6 C4 5.34 4 4.68 4 4 C2.68 3.67 1.36 3.34 0 3 C0 2.01 0 1.02 0 0 Z " fill="#2DA3E2" transform="translate(138,139)"/>
</svg>
