<?xml version="1.0" encoding="UTF-8"?>
<svg version="1.1" xmlns="http://www.w3.org/2000/svg" width="225" height="225">
<path d="M0 0 C74.25 0 148.5 0 225 0 C225 74.25 225 148.5 225 225 C150.75 225 76.5 225 0 225 C0 150.75 0 76.5 0 0 Z " fill="#664BC3" transform="translate(0,0)"/>
<path d="M0 0 C6.27814983 2.09271661 11.24772612 4.77311465 17 8 C17 12.95 17 17.9 17 23 C18.4025 22.89558594 19.805 22.79117188 21.25 22.68359375 C35.05010465 21.98127353 43.7763945 23.89584932 55 32 C55 32.33 55 32.66 55 33 C36.85 33 18.7 33 0 33 C0 22.11 0 11.22 0 0 Z " fill="#F7F6FB" transform="translate(82,53)"/>
<path d="M0 0 C18.48 0 36.96 0 56 0 C56 10.89 56 21.78 56 33 C50.13436421 30.65374568 44.63812224 27.85003981 39 25 C39 19.72 39 14.44 39 9 C37.44152344 9.0928125 35.88304687 9.185625 34.27734375 9.28125 C20.67783208 9.8381078 11.1843094 9.02976059 0 1 C0 0.67 0 0.34 0 0 Z " fill="#FBFAFD" transform="translate(87,90)"/>
<path d="M0 0 C3.02174547 2.35024648 5.00739013 4.28720521 5.6484375 8.15234375 C5.56701891 16.95912125 5.56701891 16.95912125 2.25 20.75 C-1.96595086 23.28496406 -5.94608673 23.45343016 -10.75 22.75 C-14.21868763 20.68354779 -16.55891972 18.64808091 -17.75 14.75 C-18.21846274 9.90921834 -18.25094246 7.71610332 -16 3.375 C-11.57885108 -1.78300707 -6.39311336 -2.90596062 0 0 Z " fill="#F7F6FB" transform="translate(51.75,149.25)"/>
<path d="M0 0 C6.43637509 2.14545836 11.96664451 4.91628497 18 8 C18 15.59 18 23.18 18 31 C11.96287824 27.72057583 5.96615074 24.40922899 0 21 C0 14.07 0 7.14 0 0 Z " fill="#F5F4FB" transform="translate(125,53)"/>
<path d="M0 0 C13.39622642 4.46540881 13.39622642 4.46540881 17 9 C18.41193319 15.52444152 17.66679916 22.41127821 17 29 C10.80946202 27.10793646 5.63406915 24.16057538 0 21 C0 14.07 0 7.14 0 0 Z " fill="#F9F8FC" transform="translate(82,93)"/>
<path d="M0 0 C5 0 5 0 7.45703125 2.40625 C8.23433594 3.4271875 9.01164063 4.448125 9.8125 5.5 C10.99779297 7.03140625 10.99779297 7.03140625 12.20703125 8.59375 C12.79871094 9.3878125 13.39039063 10.181875 14 11 C14.33 7.37 14.66 3.74 15 0 C16.65 0 18.3 0 20 0 C21 1 21 1 21.11352539 3.22485352 C21.10828857 4.18319092 21.10305176 5.14152832 21.09765625 6.12890625 C21.09443359 7.16337891 21.09121094 8.19785156 21.08789062 9.26367188 C21.07951172 10.35228516 21.07113281 11.44089844 21.0625 12.5625 C21.05798828 13.65498047 21.05347656 14.74746094 21.04882812 15.87304688 C21.03699826 18.58208495 21.02051543 21.29101599 21 24 C18.63769531 24.16186523 18.63769531 24.16186523 16 24 C13.796875 21.41015625 13.796875 21.41015625 11.75 18.0625 C11.06421875 16.96035156 10.3784375 15.85820312 9.671875 14.72265625 C9.12015625 13.82417969 8.5684375 12.92570313 8 12 C7.67 11.67 7.34 11.34 7 11 C6.67 15.29 6.34 19.58 6 24 C4.02 24 2.04 24 0 24 C0 16.08 0 8.16 0 0 Z " fill="#EDEBF7" transform="translate(121,148)"/>
<path d="M0 0 C4.24559192 0.04245592 6.90622847 0.42869277 10.25 3.25 C12.25 6.25 12.25 6.25 12 9.1875 C11.34911834 11.84526679 10.60855538 13.89517067 9.25 16.25 C9.91 17.19875 10.57 18.1475 11.25 19.125 C13.25 22.25 13.25 22.25 13.25 24.25 C10.5625 24.75 10.5625 24.75 7.25 24.25 C5.680648 22.30138794 4.56721635 20.32168959 3.42578125 18.09765625 C2.31331822 15.92077684 2.31331822 15.92077684 -0.75 15.25 C-0.75 18.22 -0.75 21.19 -0.75 24.25 C-2.4 24.25 -4.05 24.25 -5.75 24.25 C-5.77887236 20.43751574 -5.79675492 16.6250593 -5.8125 12.8125 C-5.82087891 11.72388672 -5.82925781 10.63527344 -5.83789062 9.51367188 C-5.84111328 8.47919922 -5.84433594 7.44472656 -5.84765625 6.37890625 C-5.85289307 5.42056885 -5.85812988 4.46223145 -5.86352539 3.47485352 C-5.65622065 -0.58787362 -3.58530423 0.06364445 0 0 Z " fill="#F7F6FB" transform="translate(203.75,147.75)"/>
<path d="M0 0 C1.65 0 3.3 0 5 0 C6 1 6 1 6.09765625 2.84765625 C6.06510417 4.8984375 6.03255208 6.94921875 6 9 C8.64 9 11.28 9 14 9 C14 6.03 14 3.06 14 0 C15.66611905 -0.042721 17.33382885 -0.04063832 19 0 C20 1 20 1 20.11352539 3.22485352 C20.10828857 4.18319092 20.10305176 5.14152832 20.09765625 6.12890625 C20.09443359 7.16337891 20.09121094 8.19785156 20.08789062 9.26367188 C20.07951172 10.35228516 20.07113281 11.44089844 20.0625 12.5625 C20.05798828 13.65498047 20.05347656 14.74746094 20.04882812 15.87304688 C20.03699826 18.58208495 20.02051543 21.29101599 20 24 C18.02 24 16.04 24 14 24 C14 20.7 14 17.4 14 14 C11.36 14 8.72 14 6 14 C6 17.3 6 20.6 6 24 C4.02 24 2.04 24 0 24 C0 16.08 0 8.16 0 0 Z " fill="#ECEAF7" transform="translate(8,148)"/>
<path d="M0 0 C5.28 0 10.56 0 16 0 C16 1.65 16 3.3 16 5 C12.7 5 9.4 5 6 5 C6 6.32 6 7.64 6 9 C8.97 9 11.94 9 15 9 C15 10.65 15 12.3 15 14 C12.03 14 9.06 14 6 14 C6 15.65 6 17.3 6 19 C9.63 19 13.26 19 17 19 C17 20.65 17 22.3 17 24 C11.39 24 5.78 24 0 24 C0 16.08 0 8.16 0 0 Z " fill="#EEECF7" transform="translate(175,148)"/>
<path d="M0 0 C0.77601563 0.00644531 1.55203125 0.01289063 2.3515625 0.01953125 C4.375 0.1875 4.375 0.1875 6.375 1.1875 C6.045 2.8375 5.715 4.4875 5.375 6.1875 C1.745 6.1875 -1.885 6.1875 -5.625 6.1875 C-5.686875 7.775625 -5.74875 9.36375 -5.8125 11 C-5.84730469 11.89332031 -5.88210937 12.78664062 -5.91796875 13.70703125 C-5.83208366 16.22448237 -5.83208366 16.22448237 -4.28125 17.96875 C-2.14101305 19.54364134 -0.23054323 19.83539956 2.375 20.1875 C2.375 17.5475 2.375 14.9075 2.375 12.1875 C4.025 12.1875 5.675 12.1875 7.375 12.1875 C7.375 15.8175 7.375 19.4475 7.375 23.1875 C3.03616646 24.63377785 -1.09063287 24.71626805 -5.625 24.1875 C-9.12496383 22.14585443 -11.43055258 20.09660064 -12.625 16.1875 C-13.09346274 11.34671834 -13.12594246 9.15360332 -10.875 4.8125 C-7.58444558 0.97351984 -5.01995408 -0.09234029 0 0 Z " fill="#F8F7FC" transform="translate(160.625,147.8125)"/>
<path d="M0 0 C0.99 0.33 1.98 0.66 3 1 C2.67 2.32 2.34 3.64 2 5 C-0.64 5 -3.28 5 -6 5 C-5.34324028 8.05697699 -5.34324028 8.05697699 -3.22265625 9.0625 C-2.50980469 9.371875 -1.79695313 9.68125 -1.0625 10 C2.20616298 11.42373705 2.91624972 11.87437458 5 15 C5.4375 17.4375 5.4375 17.4375 5 20 C2.75845985 22.76456618 1.07273385 23.87874908 -2.48828125 24.28125 C-9.28023338 24.35988331 -9.28023338 24.35988331 -12 23 C-11.67 21.35 -11.34 19.7 -11 18 C-7.7 18.33 -4.4 18.66 -1 19 C-1.65675972 15.94302301 -1.65675972 15.94302301 -3.77734375 14.9375 C-4.49019531 14.628125 -5.20304687 14.31875 -5.9375 14 C-9.20616298 12.57626295 -9.91624972 12.12562542 -12 9 C-12.4375 6.5625 -12.4375 6.5625 -12 4 C-8.30376524 -0.14426322 -5.40259054 -0.50023987 0 0 Z " fill="#F5F3FA" transform="translate(75,148)"/>
<path d="M0 0 C6.6 0 13.2 0 20 0 C20 1.65 20 3.3 20 5 C17.69 5 15.38 5 13 5 C13 11.27 13 17.54 13 24 C11.02 24 9.04 24 7 24 C7 17.73 7 11.46 7 5 C4.69 5 2.38 5 0 5 C0 3.35 0 1.7 0 0 Z " fill="#EBE9F6" transform="translate(83,148)"/>
<path d="M0 0 C2.57271448 2.22968588 2.95311909 3.62495274 3.375 7 C2.94923246 10.40614032 2.63769276 11.78774156 0 14 C-3.5625 14.4375 -3.5625 14.4375 -7 14 C-9.54014875 10.18977687 -9.58606955 7.46529184 -9 3 C-6.90072516 -0.73204416 -3.99607841 -0.58276144 0 0 Z " fill="#664BC4" transform="translate(49,153)"/>
<path d="M0 0 C1.98 0 3.96 0 6 0 C6 7.92 6 15.84 6 24 C4.02 24 2.04 24 0 24 C0 16.08 0 8.16 0 0 Z " fill="#EAE7F6" transform="translate(108,148)"/>
<path d="M0 0 C1.98 0 3.96 0 6 0 C6.33 1.65 6.66 3.3 7 5 C4.69 5.33 2.38 5.66 0 6 C0 4.02 0 2.04 0 0 Z " fill="#684DC4" transform="translate(203,153)"/>
</svg>
