<?xml version="1.0" encoding="UTF-8"?>
<svg version="1.1" xmlns="http://www.w3.org/2000/svg" width="245" height="205">
<path d="M0 0 C3.24044458 2.56535196 4.69560167 4.086805 6 8 C6.11972619 10.59994859 6.18527241 13.17516735 6.20532227 15.77612305 C6.21522186 16.56660034 6.22512146 17.35707764 6.23532104 18.17150879 C6.26691393 20.78488162 6.29168474 23.39827263 6.31640625 26.01171875 C6.33697769 27.82347588 6.35797421 29.63522823 6.37937927 31.44697571 C6.43458035 36.21611664 6.48399831 40.98530074 6.53222656 45.7545166 C6.5824559 50.62088871 6.63813449 55.4871981 6.69335938 60.35351562 C6.80091694 69.90229018 6.90236728 79.45111918 7 89 C7.5136335 87.88627266 7.5136335 87.88627266 8.03764343 86.75004578 C15.14194981 71.35964478 22.33353302 56.02527284 29.8125 40.8125 C30.99430597 38.40415787 32.17521386 35.9953833 33.35470581 33.58590698 C34.12223945 32.01840418 34.89118763 30.45159311 35.66165161 28.88552856 C37.55600541 25.02067714 39.40367205 21.14211246 41.17724609 17.22021484 C41.52849045 16.44973312 41.8797348 15.6792514 42.24162292 14.88542175 C42.89878102 13.43678001 43.54690839 11.98399037 44.18379211 10.52632141 C46.15678632 6.18872826 48.32309169 3.16489129 52 0 C56.08180542 -1.45379371 59.80119232 -1.47952307 63.8125 0.125 C69.73753684 5.20360301 69.73753684 5.20360301 70.36042023 9.46685219 C70.49387821 12.6958714 70.49415789 15.90242967 70.45410156 19.1340332 C70.45468567 20.36371323 70.45526978 21.59339325 70.45587158 22.8603363 C70.45356535 26.2239565 70.43353245 29.58658978 70.40557575 32.95003533 C70.38053841 36.46805925 70.37821828 39.9860969 70.37347412 43.50419617 C70.36105113 50.16235789 70.32823893 56.8202563 70.28807616 63.47830218 C70.24333719 71.05985695 70.22136611 78.64142442 70.20129442 86.22307837 C70.15950549 101.81553797 70.08916689 117.40773501 70 133 C70.66319244 132.99333817 71.32638489 132.98667633 72.00967407 132.97981262 C78.92029974 132.91337496 85.83083448 132.86816418 92.74169922 132.83520508 C95.31986171 132.82013095 97.89799862 132.79966833 100.47607422 132.77368164 C104.18463461 132.73723914 107.89285554 132.72025948 111.6015625 132.70703125 C112.75177887 132.69154739 113.90199524 132.67606354 115.08706665 132.66011047 C122.21991308 132.65861487 126.9449051 133.1860968 132.375 138.1875 C134.48181949 141.83391835 134.80346714 144.9349336 134 149 C131.98497111 152.75212276 130.54533858 154.63644095 127 157 C123.9082489 157.26742554 123.9082489 157.26742554 120.0534668 157.29052734 C119.35065582 157.29724457 118.64784485 157.30396179 117.92373657 157.31088257 C115.59882547 157.32988949 113.27420274 157.33378836 110.94921875 157.3359375 C109.33120098 157.34236461 107.71318439 157.34909291 106.09516907 157.35610962 C102.70152086 157.36808985 99.3079745 157.37178979 95.91430664 157.37060547 C91.57306931 157.37040247 87.23248806 157.3976805 82.89140606 157.43214989 C79.54815189 157.45442956 76.20505519 157.45844266 72.86173439 157.45738602 C71.26179561 157.4597413 69.66185245 157.4685608 68.06198692 157.48405075 C65.81910213 157.50372919 63.57762608 157.49786642 61.3347168 157.48583984 C60.06025192 157.48868988 58.78578705 157.49153992 57.47270203 157.49447632 C52.7544855 156.82265181 49.5871092 155.04430159 46.64492798 151.25457764 C45.66731565 147.83698223 45.69115058 144.45236137 45.68115234 140.92675781 C45.67110672 140.11662735 45.6610611 139.30649689 45.65071106 138.47181702 C45.61986534 135.79892677 45.6028401 133.12613676 45.5859375 130.453125 C45.56722697 128.59795265 45.54765364 126.74278881 45.5272522 124.88763428 C45.47591289 120.00837221 45.43629676 115.12908254 45.39910889 110.24969482 C45.35908055 105.26925825 45.30798286 100.28893666 45.2578125 95.30859375 C45.16103189 85.53914325 45.07663389 75.76962785 45 66 C44.65725037 66.7434668 44.31450073 67.48693359 43.96136475 68.25292969 C36.88669666 83.58398553 29.71483096 98.85413377 22.25 114 C14.06033742 130.55757572 14.06033742 130.55757572 6.76074219 147.52148438 C4.74874818 152.31879747 2.63707992 154.63047016 -2 157 C-6.33385406 158.08346351 -9.44976874 157.2853051 -13.375 155.25 C-16.72890638 152.37522311 -17.78591018 150.49863673 -18.41062927 146.12557983 C-18.98342534 136.92097486 -19.13144878 127.7562554 -19.09765625 118.5390625 C-19.09578513 117.01207527 -19.09436452 115.48508742 -19.09336853 113.95809937 C-19.08959787 109.98968776 -19.07981597 106.02131429 -19.06866455 102.05291748 C-19.05833142 97.98320023 -19.05384573 93.91347666 -19.04882812 89.84375 C-19.03818729 81.89581607 -19.02117868 73.94791281 -19 66 C-20.87392874 69.86843407 -22.74634849 73.73759417 -24.61752319 77.60736084 C-25.25088274 78.9167124 -25.88461584 80.22588336 -26.51876831 81.53485107 C-30.97498725 90.73390233 -35.34124456 99.96928528 -39.625 109.25 C-43.90274807 118.50613957 -48.22275994 127.73979441 -52.625 136.9375 C-53.12209473 137.9800293 -53.61918945 139.02255859 -54.13134766 140.09667969 C-54.59589355 141.06379883 -55.06043945 142.03091797 -55.5390625 143.02734375 C-55.94334473 143.87031006 -56.34762695 144.71327637 -56.76416016 145.58178711 C-59.20828197 150.36428938 -61.26839989 154.22275646 -66 157 C-69.86231479 157.77103512 -73.35754986 157.8946402 -76.87890625 155.9765625 C-80.8018943 152.85707803 -81.83071284 150.47330117 -82.39453125 145.56640625 C-82.29032874 139.44346667 -79.32703823 134.33485766 -76.6875 128.9375 C-76.1094548 127.72714548 -75.53267028 126.51618823 -74.95703125 125.3046875 C-72.99479863 121.19164098 -70.99818348 117.09567035 -69 113 C-68.24285489 111.44424442 -67.48586017 109.88841565 -66.72900391 108.33251953 C-63.49596794 101.68958448 -60.25878063 95.04870511 -57.01025391 88.41333008 C-52.4204934 79.03029053 -47.91905945 69.61902507 -43.5625 60.125 C-38.43355161 48.98778253 -33.18509838 37.91004266 -27.85275269 26.86883545 C-26.95804963 25.0127409 -26.06697516 23.15489243 -25.17971802 21.29522705 C-23.93207163 18.6826531 -22.67092966 16.0770189 -21.40625 13.47265625 C-21.0358812 12.69059311 -20.66551239 11.90852997 -20.28392029 11.10276794 C-18.09119267 6.63156187 -15.87541586 3.26625383 -12 0 C-7.8213874 -1.39287087 -4.24905937 -1.10326454 0 0 Z " fill="#4285F2" transform="translate(100,23)"/>
<path d="M0 0 C1.5558519 2.06291227 3.08848469 4.12741796 4.5625 6.25 C7.91047351 8.65367329 10.5393042 8.60986157 14.58984375 8.47265625 C18.173298 7.76990428 19.77675289 5.77905889 22 3 C22.66 3 23.32 3 24 3 C24 41.61 24 80.22 24 120 C41.82 120 59.64 120 78 120 C85.5625 123.78125 85.5625 123.78125 88 128 C88.62870677 132.95106583 88.55398784 134.96843643 86.1875 139.375 C84 142 84 142 81 144 C77.9082489 144.26742554 77.9082489 144.26742554 74.0534668 144.29052734 C73.35065582 144.29724457 72.64784485 144.30396179 71.92373657 144.31088257 C69.59882547 144.32988949 67.27420274 144.33378836 64.94921875 144.3359375 C63.33120098 144.34236461 61.71318439 144.34909291 60.09516907 144.35610962 C56.70152086 144.36808985 53.3079745 144.37178979 49.91430664 144.37060547 C45.57306931 144.37040247 41.23248806 144.3976805 36.89140606 144.43214989 C33.54815189 144.45442956 30.20505519 144.45844266 26.86173439 144.45738602 C25.26179561 144.4597413 23.66185245 144.4685608 22.06198692 144.48405075 C19.81910213 144.50372919 17.57762608 144.49786642 15.3347168 144.48583984 C14.06025192 144.48868988 12.78578705 144.49153992 11.47270203 144.49447632 C6.74836657 143.82178054 3.55317318 142.04691356 0.6459198 138.21546936 C-0.28933288 135.00760416 -0.31707864 131.86596068 -0.3347168 128.55249023 C-0.34634322 127.80385869 -0.35796965 127.05522715 -0.36994839 126.2839098 C-0.40599323 123.79216109 -0.42782407 121.30050818 -0.44921875 118.80859375 C-0.47092379 117.04554427 -0.4933067 115.28250302 -0.5163269 113.51947021 C-0.57481118 108.79991562 -0.61971609 104.08032488 -0.6609993 99.36059189 C-0.68741874 96.44646269 -0.71760844 93.53239631 -0.74899292 90.61831665 C-1.07105077 60.39402758 -0.97605889 30.21355988 0 0 Z " fill="#AACAFB" transform="translate(146,36)"/>
<path d="M0 0 C4.53251016 3.58823721 5.75344014 6.11998104 6.5 11.8125 C6.43480479 15.33956093 5.63414691 17.02030317 3.125 19.5 C-0.68996224 22.33795971 -4.0129863 22.75358531 -8.69140625 22.46875 C-11.9604052 21.80499387 -13.7745646 20.44080012 -16 18 C-16.495 17.01 -16.495 17.01 -17 16 C-16.99476318 16.57834595 -16.98952637 17.15669189 -16.98413086 17.75256348 C-16.93689722 23.85437255 -16.94684102 29.95431267 -16.98779297 36.05615234 C-16.99582943 38.32339914 -16.99000772 40.59074425 -16.96923828 42.85791016 C-16.85333157 56.67521028 -17.5247288 67.22746573 -24.8604126 79.08447266 C-26.89082569 82.4973849 -28.55011032 86.09165523 -30.26171875 89.671875 C-30.98845448 91.16318994 -31.71624878 92.65398946 -32.44506836 94.14428711 C-33.19273774 95.67943116 -33.94021117 97.21467066 -34.6875 98.75 C-35.26686813 99.93941696 -35.26686813 99.93941696 -35.85794067 101.15286255 C-42.22295858 114.22992051 -48.42294562 127.3749643 -54.49609375 140.58984375 C-60.46391619 153.5143176 -60.46391619 153.5143176 -66 157 C-69.88744476 157.86387661 -73.32738757 157.91645223 -76.875 155.97265625 C-79.55860571 153.85028538 -80.91288702 152.26133894 -82 149 C-82.89251786 141.23244355 -80.05700875 135.82750963 -76.6875 128.9375 C-76.1094548 127.72714548 -75.53267028 126.51618823 -74.95703125 125.3046875 C-72.99479863 121.19164098 -70.99818348 117.09567035 -69 113 C-68.24285489 111.44424442 -67.48586017 109.88841565 -66.72900391 108.33251953 C-63.49596794 101.68958448 -60.25878063 95.04870511 -57.01025391 88.41333008 C-52.4204934 79.03029053 -47.91905945 69.61902507 -43.5625 60.125 C-38.43355161 48.98778253 -33.18509838 37.91004266 -27.85275269 26.86883545 C-26.95804963 25.0127409 -26.06697516 23.15489243 -25.17971802 21.29522705 C-23.93207163 18.6826531 -22.67092966 16.0770189 -21.40625 13.47265625 C-21.0358812 12.69059311 -20.66551239 11.90852997 -20.28392029 11.10276794 C-18.09119267 6.63156187 -15.87541586 3.26625383 -12 0 C-7.8213874 -1.39287087 -4.24905937 -1.10326454 0 0 Z " fill="#4185F3" transform="translate(100,23)"/>
<path d="M0 0 C0.598125 0.78375 1.19625 1.5675 1.8125 2.375 C4.10213718 5.12256462 5.70353606 6.79124733 9.3046875 7.37109375 C15.14138162 7.57527525 15.14138162 7.57527525 20 4.5 C20.66 3.675 21.32 2.85 22 2 C22.66 2 23.32 2 24 2 C28.49930742 82.89984793 28.49930742 82.89984793 11.17626953 107.70068359 C7.15986443 113.78972315 4.14071324 120.42805094 1 127 C0.67 127 0.34 127 0 127 C-1.30375633 121.0825684 -1.09197031 115.23328708 -1.02172852 109.21142578 C-1.01212097 108.03036758 -1.00251343 106.84930939 -0.99261475 105.63246155 C-0.96535924 102.40766244 -0.93345842 99.18295003 -0.89946485 95.95821619 C-0.86499248 92.58300711 -0.83649667 89.2077476 -0.80735779 85.83248901 C-0.7513291 79.44714603 -0.68995162 73.06186619 -0.62663645 66.67659175 C-0.55479 59.40456025 -0.48893072 52.13247834 -0.42356598 44.86038613 C-0.28902345 29.90685862 -0.14698934 14.95341073 0 0 Z " fill="#AACBFC" transform="translate(82,37)"/>
<path d="M0 0 C3.62221023 -0.00985166 7.24388542 -0.04104709 10.8659668 -0.07226562 C13.18432286 -0.07878446 15.5026829 -0.0840393 17.82104492 -0.08789062 C19.43356392 -0.10641083 19.43356392 -0.10641083 21.07865906 -0.12530518 C27.96951166 -0.10474381 32.53790933 0.60126492 37.77807617 5.42773438 C39.88489566 9.07415272 40.20654331 12.17516798 39.40307617 16.24023438 C37.38804728 19.99235713 35.94841475 21.87667532 32.40307617 24.24023438 C29.31132507 24.50765991 29.31132507 24.50765991 25.45654297 24.53076172 C24.75373199 24.53747894 24.05092102 24.54419617 23.32681274 24.55111694 C21.00190164 24.57012387 18.67727891 24.57402273 16.35229492 24.57617188 C14.73427715 24.58259899 13.11626056 24.58932729 11.49824524 24.59634399 C8.10459704 24.60832423 4.71105067 24.61202416 1.31738281 24.61083984 C-3.02385452 24.61063685 -7.36443577 24.63791487 -11.70551777 24.67238426 C-15.04877194 24.69466393 -18.39186864 24.69867703 -21.73518944 24.69762039 C-23.33512822 24.69997567 -24.93507138 24.70879518 -26.5349369 24.72428513 C-28.7778217 24.74396357 -31.01929775 24.7381008 -33.26220703 24.72607422 C-34.53667191 24.72892426 -35.81113678 24.73177429 -37.1242218 24.73471069 C-41.75398509 24.075481 -45.06431015 22.1908336 -47.97192383 18.49023438 C-48.93008345 15.04085975 -48.71600895 11.81278811 -48.59692383 8.24023438 C-47.93692383 8.24023438 -47.27692383 8.24023438 -46.59692383 8.24023438 C-46.34942383 7.64210937 -46.10192383 7.04398438 -45.84692383 6.42773438 C-44.34290145 3.79569521 -43.20839451 2.79356963 -40.59692383 1.24023438 C-37.44335938 0.73730469 -37.44335938 0.73730469 -33.54614258 0.56835938 C-32.81707199 0.53575012 -32.0880014 0.50314087 -31.33683777 0.46954346 C-20.8983097 0.05675381 -10.44526839 0.01721156 0 0 Z " fill="#4284F1" transform="translate(194.596923828125,155.759765625)"/>
<path d="M0 0 C2.29360217 1.7839128 3.80081881 3.23300109 5.25 5.75 C5.25 7.07 5.25 8.39 5.25 9.75 C5.91 10.08 6.57 10.41 7.25 10.75 C5.13913342 15.79262572 2.90673758 18.81798004 -1.75 21.75 C-5.63744476 22.61387661 -9.07738757 22.66645223 -12.625 20.72265625 C-15.30860571 18.60028538 -16.66288702 17.01133894 -17.75 13.75 C-18.19611187 4.53035471 -18.19611187 4.53035471 -15.75 0.75 C-10.62469899 -1.75305398 -5.25908028 -2.39049103 0 0 Z " fill="#0E469F" transform="translate(35.75,158.25)"/>
<path d="M0 0 C3.4375 1.5625 3.4375 1.5625 6 4 C6.75 7.6875 6.75 7.6875 7 11 C7.66 11.33 8.32 11.66 9 12 C7.35896548 15.85963985 5.91908322 19.18303714 2.75 22 C-0.90719481 23.32988902 -4.19196516 23.67814319 -8 23 C-11.10352458 21.39076503 -13.21701424 19.99652733 -15.375 17.25 C-16.33840457 13.78174356 -16.70074252 10.52473488 -16 7 C-11.49113299 1.39438156 -7.22030476 -1.07623411 0 0 Z " fill="#0E469F" transform="translate(98,157)"/>
<path d="M0 0 C4.53251016 3.58823721 5.75344014 6.11998104 6.5 11.8125 C6.43480479 15.33956093 5.63414691 17.02030317 3.125 19.5 C-0.6902435 22.33816894 -4.01842987 22.77524097 -8.69921875 22.44140625 C-12.23136709 21.76376149 -13.73661713 20.81208175 -16 18 C-17.57886769 15.04942101 -18.64615351 12.34123903 -19 9 C-17.375 5.625 -17.375 5.625 -15 3 C-14.484375 2.401875 -13.96875 1.80375 -13.4375 1.1875 C-9.5376028 -2.03415421 -4.5723792 -1.18721425 0 0 Z " fill="#10459D" transform="translate(100,23)"/>
<path d="M0 0 C3.53160708 1.05281871 5.48081665 3.02769165 8.0703125 5.6171875 C9.67663973 8.82984196 9.54963194 12.13240562 9.0703125 15.6171875 C7.05528361 19.36931026 5.61565108 21.25362845 2.0703125 23.6171875 C-2.43251161 24.34236142 -5.92254404 24.21718786 -9.8671875 21.8671875 C-13.46875163 17.93820845 -14.44302701 15.12968567 -14.3203125 9.6484375 C-13.61465074 5.97899634 -11.57062808 4.19671085 -8.9296875 1.6171875 C-5.55033154 -0.63571647 -3.94117343 -0.59626609 0 0 Z " fill="#0E459E" transform="translate(224.9296875,156.3828125)"/>
<path d="M0 0 C2.7994493 1.91181903 4.5318282 3.94552764 6 7 C6.45333998 10.07588742 6.37712795 12.92012175 6 16 C5.34 16 4.68 16 4 16 C3.731875 16.61875 3.46375 17.2375 3.1875 17.875 C2 20 2 20 -1 22 C-5.87425685 22.78483797 -9.77165779 22.76771388 -14 20.125 C-16.70298508 15.90158581 -18.23669524 12.07316802 -18 7 C-14.11848622 -0.53230821 -7.8819396 -2.35922002 0 0 Z " fill="#0F459D" transform="translate(164,23)"/>
<path d="M0 0 C5.5 3 5.5 3 7 6 C7.52137294 10.82911 7.73402673 14.74166846 5.25 19 C1.89896183 21.97870059 0.12839194 22.87462312 -4.375 23.375 C-8.69296607 22.92831385 -10.69326548 21.7684289 -14 19 C-16.80476313 15.43030146 -16.14466817 11.34004512 -16 7 C-15.34 7 -14.68 7 -14 7 C-13.7525 6.401875 -13.505 5.80375 -13.25 5.1875 C-10.19449508 -0.15963361 -5.89210715 -1.05175809 0 0 Z " fill="#0E459E" transform="translate(162,157)"/>
<path d="M0 0 C1.05267563 0.00141495 2.10535126 0.0028299 3.18992615 0.00428772 C6.52117874 0.00984329 9.85236179 0.02238737 13.18359375 0.03515625 C15.45507715 0.040177 17.72656161 0.0447389 19.99804688 0.04882812 C25.53908585 0.05979813 31.08008483 0.07649142 36.62109375 0.09765625 C36.29109375 0.75765625 35.96109375 1.41765625 35.62109375 2.09765625 C28.57357901 2.24063398 21.52605183 2.3829862 14.47851562 2.52490234 C12.08072625 2.57326058 9.68293977 2.62176232 7.28515625 2.67041016 C3.83985124 2.74028596 0.39453619 2.80964669 -3.05078125 2.87890625 C-4.12382507 2.90078003 -5.1968689 2.92265381 -6.3024292 2.94519043 C-7.30316467 2.96521118 -8.30390015 2.98523193 -9.33496094 3.00585938 C-10.65400421 3.03250671 -10.65400421 3.03250671 -11.99969482 3.05969238 C-14.12586563 3.09361861 -16.25246479 3.09765625 -18.37890625 3.09765625 C-19.03890625 2.43765625 -19.69890625 1.77765625 -20.37890625 1.09765625 C-13.54473177 0.2067783 -6.88732176 -0.03542381 0 0 Z " fill="#427DDE" transform="translate(182.37890625,155.90234375)"/>
<path d="M0 0 C1.15266603 3.4579981 0.89375697 3.88659763 -0.546875 7.0546875 C-0.8975 7.83457031 -1.248125 8.61445313 -1.609375 9.41796875 C-1.98578125 10.22878906 -2.3621875 11.03960937 -2.75 11.875 C-3.1109375 12.67808594 -3.471875 13.48117188 -3.84375 14.30859375 C-5.68802556 18.36466354 -7.64888555 22.20811114 -10 26 C-10.79623822 28.09415804 -10.79623822 28.09415804 -11 30 C-9.60804085 32.7839183 -7.84424221 32.97898997 -5 34 C-5 34.33 -5 34.66 -5 35 C-5.92232422 35.19916016 -5.92232422 35.19916016 -6.86328125 35.40234375 C-7.67152344 35.57894531 -8.47976562 35.75554687 -9.3125 35.9375 C-10.11300781 36.11152344 -10.91351563 36.28554687 -11.73828125 36.46484375 C-14.145401 36.99886159 -14.145401 36.99886159 -17 38 C-16.36552275 33.34585324 -14.46409204 29.45467207 -12.40234375 25.29296875 C-11.87176109 24.20487663 -11.87176109 24.20487663 -11.33045959 23.09480286 C-10.20488135 20.78967614 -9.07132665 18.48857895 -7.9375 16.1875 C-7.17069341 14.62070225 -6.40441145 13.05364763 -5.63867188 11.48632812 C-3.76517821 7.65455012 -1.8845234 3.82636468 0 0 Z " fill="#4A7DD7" transform="translate(38,122)"/>
<path d="M0 0 C1.81658904 3.1076191 2.22950934 5.27864493 2.13525391 8.86035156 C2.11508209 9.82104553 2.09491028 10.7817395 2.0741272 11.77154541 C2.02583267 13.31548981 2.02583267 13.31548981 1.9765625 14.890625 C1.95153656 15.95037537 1.92651062 17.01012573 1.90072632 18.10198975 C1.81859049 21.48498827 1.72197498 24.86739748 1.625 28.25 C1.56675396 30.5442468 1.50945082 32.83851775 1.453125 35.1328125 C1.3130212 40.75553426 1.16102904 46.37784071 1 52 C0.67 52 0.34 52 0 52 C0 36.82 0 21.64 0 6 C-0.66 6 -1.32 6 -2 6 C-2.12375 6.556875 -2.2475 7.11375 -2.375 7.6875 C-3.05976855 10.22114364 -3.99133763 12.57921032 -5 15 C-5.66 15 -6.32 15 -7 15 C-5.45454854 9.52067211 -2.84456788 4.88570819 0 0 Z " fill="#417FE3" transform="translate(81,33)"/>
<path d="M0 0 C0.33 0 0.66 0 1 0 C0.67 3.63 0.34 7.26 0 11 C-0.99 11 -1.98 11 -3 11 C-3.99 12.485 -3.99 12.485 -5 14 C-4.34 14.33 -3.68 14.66 -3 15 C-3.99 15.495 -3.99 15.495 -5 16 C-4.67 17.65 -4.34 19.3 -4 21 C-5.32 21 -6.64 21 -8 21 C-9.7511573 22.4166747 -9.7511573 22.4166747 -11 24 C-9.42341672 18.82451456 -7.25856048 14.05799007 -4.9375 9.1875 C-4.57333984 8.41212891 -4.20917969 7.63675781 -3.83398438 6.83789062 C-1.13446065 1.13446065 -1.13446065 1.13446065 0 0 Z " fill="#457EDC" transform="translate(146,31)"/>
<path d="M0 0 C0.66 0.33 1.32 0.66 2 1 C-2.29 9.91 -6.58 18.82 -11 28 C-12 25 -12 25 -11 22 C-11.99 22.33 -12.98 22.66 -14 23 C-14 22.34 -14 21.68 -14 21 C-12.68 20.67 -11.36 20.34 -10 20 C-9.67 18.68 -9.34 17.36 -9 16 C-8.34 16 -7.68 16 -7 16 C-6.83564453 15.07767578 -6.83564453 15.07767578 -6.66796875 14.13671875 C-6.50941406 13.32847656 -6.35085937 12.52023438 -6.1875 11.6875 C-6.03667969 10.88699219 -5.88585937 10.08648437 -5.73046875 9.26171875 C-4.91355573 6.73234635 -3.95148767 5.7482077 -2 4 C-0.82425289 1.90010348 -0.82425289 1.90010348 0 0 Z " fill="#497DD7" transform="translate(130,116)"/>
<path d="M0 0 C0.66 0 1.32 0 2 0 C0.65150163 4.35970831 -1.04907846 8.31341438 -3.125 12.375 C-3.66382813 13.43460938 -4.20265625 14.49421875 -4.7578125 15.5859375 C-5.16773438 16.38257813 -5.57765625 17.17921875 -6 18 C-6.66 18 -7.32 18 -8 18 C-8.6875 15.6875 -8.6875 15.6875 -9 13 C-8 12 -7 11 -6 10 C-6.23043864 7.34533951 -6.23043864 7.34533951 -7 5 C-6.01 4.67 -5.02 4.34 -4 4 C-3.34 4.33 -2.68 4.66 -2 5 C-1.34 3.35 -0.68 1.7 0 0 Z " fill="#437EDE" transform="translate(49,150)"/>
<path d="M0 0 C0.99 0.66 1.98 1.32 3 2 C0.88913342 7.04262572 -1.34326242 10.06798004 -6 13 C-9.05113627 13.39385583 -11.94410996 13.305589 -15 13 C-15 12.67 -15 12.34 -15 12 C-10.545 11.505 -10.545 11.505 -6 11 C-6 9.35 -6 7.7 -6 6 C-5.195625 5.7525 -4.39125 5.505 -3.5625 5.25 C-0.828919 4.27761141 -0.828919 4.27761141 -0.1875 1.875 C-0.125625 1.25625 -0.06375 0.6375 0 0 Z " fill="#14418C" transform="translate(40,167)"/>
<path d="M0 0 C0.33 0 0.66 0 1 0 C1 1.65 1 3.3 1 5 C0.34 5 -0.32 5 -1 5 C-1.66 7.97 -2.32 10.94 -3 14 C-3.66 14 -4.32 14 -5 14 C-5.4021875 15.3303125 -5.4021875 15.3303125 -5.8125 16.6875 C-6.91710819 19.76877548 -8.22849144 22.26221405 -10 25 C-10.33 24.34 -10.66 23.68 -11 23 C-10.10375977 20.66162109 -10.10375977 20.66162109 -8.69140625 17.7734375 C-8.19189453 16.7421875 -7.69238281 15.7109375 -7.17773438 14.6484375 C-6.64470703 13.56820312 -6.11167969 12.48796875 -5.5625 11.375 C-5.03333984 10.28703125 -4.50417969 9.1990625 -3.95898438 8.078125 C-2.64634405 5.38189082 -1.32642367 2.68947319 0 0 Z " fill="#4A7ED5" transform="translate(70,55)"/>
<path d="M0 0 C0.66 0.33 1.32 0.66 2 1 C0.59859334 4.25679011 -0.82373891 7.50402649 -2.25 10.75 C-2.64574219 11.67039062 -3.04148437 12.59078125 -3.44921875 13.5390625 C-7.16075212 21.93564619 -7.16075212 21.93564619 -11 25 C-8.4621689 16.11759114 -4.22230349 8.17381793 0 0 Z " fill="#4C7FD5" transform="translate(50,97)"/>
<path d="M0 0 C0.226875 0.61875 0.45375 1.2375 0.6875 1.875 C2.37929835 4.61410209 3.99244161 5.05024472 7 6 C7 6.33 7 6.66 7 7 C6.38511719 7.13277344 5.77023438 7.26554688 5.13671875 7.40234375 C3.92435547 7.66724609 3.92435547 7.66724609 2.6875 7.9375 C1.88699219 8.11152344 1.08648437 8.28554687 0.26171875 8.46484375 C-2.145401 8.99886159 -2.145401 8.99886159 -5 10 C-4.4454626 6.67277559 -3.75986957 3.8986087 -2 1 C-1.34 0.67 -0.68 0.34 0 0 Z " fill="#437FE0" transform="translate(26,150)"/>
<path d="M0 0 C0.33 0.66 0.66 1.32 1 2 C0.19555664 4.15478516 0.19555664 4.15478516 -1.08984375 6.7890625 C-1.54423828 7.73007813 -1.99863281 8.67109375 -2.46679688 9.640625 C-2.95212891 10.62546875 -3.43746094 11.6103125 -3.9375 12.625 C-4.41896484 13.61757812 -4.90042969 14.61015625 -5.39648438 15.6328125 C-6.59064111 18.09206598 -7.7920631 20.54749335 -9 23 C-9.96862277 19.62065154 -9.92663319 18.02391967 -8.5625 14.75 C-8.27503906 14.04359375 -7.98757812 13.3371875 -7.69140625 12.609375 C-7.46324219 12.07828125 -7.23507813 11.5471875 -7 11 C-6.34 11 -5.68 11 -5 11 C-4.67 8.69 -4.34 6.38 -4 4 C-3.01 3.67 -2.02 3.34 -1 3 C-0.67 2.01 -0.34 1.02 0 0 Z " fill="#487CD2" transform="translate(64,121)"/>
<path d="M0 0 C0.66 0 1.32 0 2 0 C0.24009216 5.91969002 -2.39694605 11.41634992 -5 17 C-6.39195915 12.82412255 -4.82323219 10.86525224 -3 7 C-3.33 7.33 -3.66 7.66 -4 8 C-4.66 7.67 -5.32 7.34 -6 7 C-5.67 5.35 -5.34 3.7 -5 2 C-3.68 2.99 -2.36 3.98 -1 5 C-0.67 3.35 -0.34 1.7 0 0 Z " fill="#477EDA" transform="translate(78,89)"/>
<path d="M0 0 C0.66 0 1.32 0 2 0 C1.28683679 3.95659039 -0.54328688 7.1708008 -2.4375 10.6875 C-3.05496094 11.84636719 -3.67242187 13.00523438 -4.30859375 14.19921875 C-6 17 -6 17 -8 18 C-6.65150163 13.64029169 -4.95092154 9.68658562 -2.875 5.625 C-2.33617188 4.56539063 -1.79734375 3.50578125 -1.2421875 2.4140625 C-0.83226563 1.61742188 -0.42234375 0.82078125 0 0 Z " fill="#4E80D5" transform="translate(117,91)"/>
<path d="M0 0 C1.0546875 1.859375 1.0546875 1.859375 2 4 C1.125 6.25 1.125 6.25 0 8 C0 7.34 0 6.68 0 6 C-0.66 6 -1.32 6 -2 6 C-2.12375 6.556875 -2.2475 7.11375 -2.375 7.6875 C-3.05976855 10.22114364 -3.99133763 12.57921032 -5 15 C-5.66 15 -6.32 15 -7 15 C-5.45454854 9.52067211 -2.84456788 4.88570819 0 0 Z " fill="#4880DA" transform="translate(81,33)"/>
<path d="M0 0 C1 3 1 3 0.29296875 4.8671875 C-0.07183594 5.52976562 -0.43664062 6.19234375 -0.8125 6.875 C-2.40707479 9.86551743 -3.80777286 12.82072763 -5 16 C-5.66 16 -6.32 16 -7 16 C-5.35433477 10.31497465 -2.70967216 5.23318364 0 0 Z " fill="#5389E5" transform="translate(104,119)"/>
<path d="M0 0 C0.66 0 1.32 0 2 0 C3 3 3 3 2.9375 5.875 C3.00178558 9.08927906 3.64332704 11.11706996 5 14 C0.06127451 9.22058824 0.06127451 9.22058824 -0.09765625 6.0546875 C-0.06510417 4.03645833 -0.03255208 2.01822917 0 0 Z " fill="#143B87" transform="translate(82,164)"/>
<path d="M0 0 C1.24461474 3.59555368 1.08393041 6.36109078 0 10 C-2.5625 11.875 -2.5625 11.875 -5 13 C-4.54554036 11.58208592 -4.08625056 10.16571954 -3.625 8.75 C-3.24214844 7.56664063 -3.24214844 7.56664063 -2.8515625 6.359375 C-2.04826333 4.13372042 -1.10288338 2.09068328 0 0 Z " fill="#4B7DD4" transform="translate(132,59)"/>
<path d="M0 0 C0.66 0.99 1.32 1.98 2 3 C1.49339844 3.79664063 1.49339844 3.79664063 0.9765625 4.609375 C0.30753906 5.66898438 0.30753906 5.66898438 -0.375 6.75 C-0.81585938 7.44609375 -1.25671875 8.1421875 -1.7109375 8.859375 C-2.91880906 10.86517383 -3.98387737 12.89178296 -5 15 C-5.66 14.67 -6.32 14.34 -7 14 C-4.69 9.38 -2.38 4.76 0 0 Z " fill="#4C87E5" transform="translate(96,136)"/>
<path d="M0 0 C0.66 0.33 1.32 0.66 2 1 C1.67 1.66 1.34 2.32 1 3 C1.99 3 2.98 3 4 3 C4 3.66 4 4.32 4 5 C1.625 6.6875 1.625 6.6875 -1 8 C-1.66 7.67 -2.32 7.34 -3 7 C-2.01 4.69 -1.02 2.38 0 0 Z " fill="#4683E3" transform="translate(88,152)"/>
<path d="M0 0 C0.66 0 1.32 0 2 0 C2 3.3 2 6.6 2 10 C1.67 10 1.34 10 1 10 C0.67 8.35 0.34 6.7 0 5 C-1.65 5.33 -3.3 5.66 -5 6 C-3.38405168 3.95880212 -1.7143618 1.95927063 0 0 Z " fill="#A1C4F5" transform="translate(168,39)"/>
<path d="M0 0 C1.32 0.66 2.64 1.32 4 2 C3.01 3.32 2.02 4.64 1 6 C-0.32 4.68 -1.64 3.36 -3 2 C-2.01 2 -1.02 2 0 2 C0 1.34 0 0.68 0 0 Z " fill="#4681E9" transform="translate(68,106)"/>
<path d="M0 0 C2.475 0.99 2.475 0.99 5 2 C4.34 3.65 3.68 5.3 3 7 C2.34 7 1.68 7 1 7 C0.67 4.69 0.34 2.38 0 0 Z " fill="#437BDA" transform="translate(104,161)"/>
<path d="M0 0 C0.33 0 0.66 0 1 0 C1 1.65 1 3.3 1 5 C0.34 5 -0.32 5 -1 5 C-1.33 6.65 -1.66 8.3 -2 10 C-2.66 10 -3.32 10 -4 10 C-2.8905928 6.51329166 -1.73662334 3.22515763 0 0 Z " fill="#4C7DD7" transform="translate(122,80)"/>
<path d="M0 0 C1.98 0.495 1.98 0.495 4 1 C4.33 2.32 4.66 3.64 5 5 C3.02 4.34 1.04 3.68 -1 3 C-0.67 2.01 -0.34 1.02 0 0 Z " fill="#123E94" transform="translate(161,23)"/>
<path d="M0 0 C0.66 0.66 1.32 1.32 2 2 C1.01 4.31 0.02 6.62 -1 9 C-1.66 8.34 -2.32 7.68 -3 7 C-2.01 4.69 -1.02 2.38 0 0 Z " fill="#99C5FE" transform="translate(104,114)"/>
<path d="M0 0 C0.66 1.32 1.32 2.64 2 4 C0.625 6 0.625 6 -1 8 C-1.66 8 -2.32 8 -3 8 C-1.125 2.25 -1.125 2.25 0 0 Z " fill="#4B7FD9" transform="translate(54,88)"/>
</svg>
