<?xml version="1.0" standalone="no"?>
<!DOCTYPE svg PUBLIC "-//W3C//DTD SVG 20010904//EN"
 "http://www.w3.org/TR/2001/REC-SVG-20010904/DTD/svg10.dtd">
<svg version="1.0" xmlns="http://www.w3.org/2000/svg"
 width="316.000000pt" height="159.000000pt" viewBox="0 0 316.000000 159.000000"
 preserveAspectRatio="xMidYMid meet">

<g transform="translate(0.000000,159.000000) scale(0.100000,-0.100000)"
fill="#000000" stroke="none">
<path d="M140 1461 c0 -5 74 -305 164 -668 90 -362 166 -667 168 -678 2 -11
11 -19 20 -19 9 1 243 219 521 485 384 367 503 487 494 495 -10 10 -1337 394
-1359 394 -5 0 -8 -4 -8 -9z m178 -67 c70 -20 130 -39 135 -43 4 -4 -40 -52
-98 -105 -58 -54 -107 -97 -109 -95 -4 4 -66 262 -66 272 0 10 0 10 138 -29z
m205 -211 c20 -81 29 -133 22 -133 -14 0 -259 70 -264 76 -3 2 42 49 100 103
57 54 105 96 106 92 2 -3 18 -66 36 -138z m139 112 c67 -19 124 -37 127 -41 6
-5 -187 -193 -200 -194 -3 0 -18 51 -33 113 -15 61 -30 122 -33 135 -7 29 -4
29 139 -13z m338 -96 c63 -18 118 -35 123 -39 4 -4 -40 -50 -98 -104 -67 -62
-107 -93 -110 -84 -6 18 -65 255 -65 263 0 4 8 4 18 1 9 -3 69 -19 132 -37z
m-145 -110 c19 -74 33 -135 31 -136 -2 -2 -225 59 -266 73 -9 3 20 37 90 103
58 54 107 97 108 96 2 -2 19 -63 37 -136z m480 14 c71 -20 131 -38 133 -38 3
-3 -197 -199 -206 -203 -7 -2 -73 248 -72 271 0 11 5 10 145 -30z m-146 -98
c17 -68 31 -131 31 -138 0 -10 -33 -4 -131 24 -72 21 -134 40 -137 44 -6 5
187 193 199 195 4 0 21 -56 38 -125z m-745 41 c49 -14 92 -28 95 -31 5 -6
-201 -205 -207 -200 -4 4 -71 265 -72 277 0 4 21 1 48 -7 26 -7 87 -25 136
-39z m306 -87 c63 -18 118 -35 122 -38 4 -3 -40 -50 -97 -104 -66 -62 -107
-94 -110 -85 -6 18 -65 255 -65 263 0 4 8 4 18 1 9 -3 69 -19 132 -37z m-144
-111 c18 -73 34 -136 34 -139 0 -7 -271 69 -280 78 -5 5 203 203 208 198 2 -2
19 -63 38 -137z m472 16 c70 -20 129 -38 131 -41 6 -4 -190 -203 -200 -203 -4
0 -22 63 -42 140 -19 77 -30 140 -25 140 5 0 66 -16 136 -36z m-139 -110 c18
-74 31 -137 29 -139 -4 -4 -218 53 -268 71 -11 4 16 35 90 104 58 55 107 99
110 100 3 0 21 -61 39 -136z m-447 -39 c67 -19 123 -37 126 -40 5 -5 -181
-186 -198 -193 -7 -2 -70 232 -70 258 0 15 10 13 142 -25z m333 -95 c61 -18
116 -35 122 -39 9 -4 -21 -41 -87 -106 -55 -54 -101 -97 -104 -94 -2 2 -20 66
-39 142 -30 118 -33 137 -18 133 9 -3 66 -19 126 -36z m-137 -102 c18 -73 32
-136 32 -139 0 -4 -64 12 -142 34 l-141 41 104 98 c57 53 106 97 109 98 3 0
20 -60 38 -132z m-110 -135 c72 -21 132 -40 132 -44 0 -14 -202 -201 -209
-193 -7 7 -71 251 -71 269 0 9 11 6 148 -32z"/>
<path d="M1602 533 c3 -133 5 -158 18 -158 12 0 16 16 18 75 3 84 20 110 72
110 40 0 49 -17 52 -105 2 -63 6 -80 18 -80 12 0 16 18 18 88 3 81 1 89 -22
112 -28 28 -72 33 -102 10 -31 -23 -34 -19 -34 45 0 54 -2 60 -20 60 -20 0
-20 -5 -18 -157z"/>
<path d="M2634 675 c-7 -18 3 -35 21 -35 21 0 28 19 15 35 -16 19 -29 19 -36
0z"/>
<path d="M1442 607 c-37 -38 -39 -47 -12 -47 18 0 20 -7 20 -79 0 -59 4 -84
16 -95 17 -17 61 -21 83 -7 17 11 5 33 -17 30 -40 -4 -42 0 -42 76 l0 75 31 0
c24 0 30 4 27 18 -2 10 -14 18 -31 20 -19 2 -27 9 -27 23 0 27 -11 24 -48 -14z"/>
<path d="M1874 587 c-2 -7 -3 -58 -2 -113 2 -80 6 -99 18 -99 12 0 16 16 18
75 3 82 17 107 61 112 15 2 26 9 26 18 0 21 -32 24 -60 6 -20 -13 -24 -13 -29
-1 -7 19 -25 19 -32 2z"/>
<path d="M2048 571 c-30 -27 -33 -35 -33 -85 0 -69 29 -104 93 -113 46 -6 102
12 102 33 0 11 -13 12 -59 8 -51 -6 -61 -4 -80 15 -11 11 -21 25 -21 31 0 5
37 10 83 12 l82 3 -2 35 c-1 25 -10 43 -32 62 -43 38 -90 38 -133 -1z m106
-22 c45 -35 34 -49 -39 -49 -72 0 -78 8 -40 45 29 30 45 31 79 4z"/>
<path d="M2309 585 c-43 -23 -62 -105 -38 -159 13 -28 64 -56 102 -56 37 0 87
20 87 36 0 11 -12 12 -59 8 -51 -6 -61 -4 -80 15 -11 11 -21 25 -21 31 0 5 37
10 83 12 l82 3 -2 35 c-3 71 -87 111 -154 75z m96 -40 c38 -37 32 -45 -40 -45
-73 0 -84 14 -39 49 34 27 50 26 79 -4z"/>
<path d="M2637 594 c-4 -4 -7 -69 -7 -145 0 -135 0 -138 -22 -141 -13 -2 -23
-10 -23 -18 0 -19 37 -25 65 -10 20 10 20 18 18 162 -3 141 -9 173 -31 152z"/>
<path d="M2755 575 c-46 -45 -31 -79 46 -105 39 -14 54 -24 54 -37 0 -16 -8
-18 -62 -16 -71 2 -87 -17 -32 -36 74 -26 139 0 139 54 0 33 -15 46 -71 65
-40 13 -54 22 -54 36 0 16 9 19 58 22 89 5 71 41 -21 42 -22 0 -41 -8 -57 -25z"/>
<path d="M2514 409 c-3 -6 1 -18 10 -27 15 -15 17 -15 32 0 19 19 11 38 -16
38 -10 0 -22 -5 -26 -11z"/>
</g>
</svg>
